<svg xmlns="http://www.w3.org/2000/svg" xmlns:xlink="http://www.w3.org/1999/xlink" width="500" zoomAndPan="magnify" viewBox="0 0 375 374.999991" height="500" preserveAspectRatio="xMidYMid meet" version="1.0"><defs><g/><clipPath id="7545ef0451"><path d="M 129.898438 108.304688 L 245.398438 108.304688 L 245.398438 215.554688 L 129.898438 215.554688 Z M 129.898438 108.304688 " clip-rule="nonzero"/></clipPath></defs><rect x="-37.5" width="450" fill="#ffffff" y="-37.499999" height="449.999989" fill-opacity="1"/><rect x="-37.5" width="450" fill="#ffffff" y="-37.499999" height="449.999989" fill-opacity="1"/><rect x="-37.5" width="450" fill="#ebe6d9" y="-37.499999" height="449.999989" fill-opacity="1"/><path fill="#b07f74" d="M 206.882812 204.0625 L 206.882812 110.21875 L 170.335938 119.976562 L 170.335938 213.640625 L 206.882812 204.0625 " fill-opacity="1" fill-rule="nonzero"/><path fill="#bb927f" d="M 131.867188 110.21875 L 131.867188 203.882812 L 170.335938 213.640625 L 170.335938 119.976562 L 131.867188 110.21875 " fill-opacity="1" fill-rule="nonzero"/><path fill="#bb927f" d="M 243.425781 118.023438 L 243.425781 211.6875 L 206.882812 204.0625 L 206.882812 110.21875 L 243.425781 118.023438 " fill-opacity="1" fill-rule="nonzero"/><path fill="#aa6a64" d="M 226.113281 143.390625 L 219.734375 133.648438 C 218.878906 132.339844 218.421875 130.824219 218.421875 129.273438 C 218.421875 126.265625 220.335938 123.566406 223.257812 122.449219 C 225.09375 121.753906 227.136719 121.753906 228.96875 122.449219 C 231.890625 123.566406 233.808594 126.265625 233.808594 129.273438 C 233.808594 130.824219 233.351562 132.339844 232.492188 133.648438 L 226.113281 143.390625 " fill-opacity="1" fill-rule="nonzero"/><path fill="#bb927f" d="M 226.113281 125.863281 C 223.996094 125.863281 222.269531 127.589844 222.269531 129.707031 C 222.269531 131.832031 223.996094 133.554688 226.113281 133.554688 C 228.234375 133.554688 229.960938 131.832031 229.960938 129.707031 C 229.960938 127.589844 228.234375 125.863281 226.113281 125.863281 " fill-opacity="1" fill-rule="nonzero"/><g clip-path="url(#7545ef0451)"><path fill="#63625e" d="M 133.792969 112.679688 L 168.414062 121.464844 L 168.414062 157.359375 L 168.285156 157.3125 C 167.285156 156.976562 166.1875 157.523438 165.859375 158.523438 C 165.519531 159.527344 166.070312 160.613281 167.074219 160.949219 L 168.414062 161.390625 L 168.414062 211.171875 L 133.792969 202.394531 Z M 241.5 209.328125 L 208.804688 202.507812 L 208.804688 170.667969 L 211.195312 171.765625 C 211.457031 171.886719 211.734375 171.945312 211.996094 171.945312 C 212.726562 171.945312 213.425781 171.535156 213.746094 170.832031 C 214.191406 169.875 213.769531 168.730469 212.808594 168.289062 L 208.804688 166.449219 L 208.804688 112.589844 L 241.5 119.570312 Z M 204.957031 164.78125 C 204.925781 164.792969 204.898438 164.792969 204.875 164.816406 C 204.003906 165.421875 203.792969 166.621094 204.402344 167.488281 L 204.957031 168.28125 L 204.957031 202.589844 L 172.261719 211.15625 L 172.261719 161.195312 L 175.015625 159.828125 C 175.972656 159.347656 176.355469 158.195312 175.882812 157.253906 C 175.40625 156.3125 174.25 155.921875 173.296875 156.394531 L 172.261719 156.917969 L 172.261719 121.441406 L 204.957031 112.71875 Z M 131.394531 205.738281 L 169.863281 215.496094 C 170.019531 215.53125 170.179688 215.554688 170.335938 215.554688 C 170.5 215.554688 170.667969 215.53125 170.824219 215.496094 L 206.933594 206.03125 L 243.027344 213.5625 C 243.597656 213.683594 244.191406 213.542969 244.636719 213.175781 C 245.085938 212.808594 245.347656 212.261719 245.347656 211.6875 L 245.347656 118.023438 C 245.347656 117.125 244.71875 116.339844 243.832031 116.152344 L 207.285156 108.347656 C 207.167969 108.320312 207.046875 108.320312 206.917969 108.3125 C 206.910156 108.3125 206.894531 108.304688 206.882812 108.304688 C 206.875 108.304688 206.875 108.304688 206.867188 108.304688 C 206.699219 108.3125 206.542969 108.328125 206.386719 108.371094 L 170.320312 117.992188 L 132.34375 108.363281 C 131.769531 108.222656 131.15625 108.339844 130.6875 108.707031 C 130.222656 109.066406 129.945312 109.628906 129.945312 110.21875 L 129.945312 203.882812 C 129.945312 204.757812 130.539062 205.523438 131.394531 205.738281 " fill-opacity="1" fill-rule="nonzero"/></g><path fill="#63625e" d="M 144.511719 191.9375 L 141.964844 194.808594 C 141.269531 195.601562 141.34375 196.8125 142.132812 197.507812 C 142.5 197.832031 142.957031 197.996094 143.410156 197.996094 C 143.941406 197.996094 144.46875 197.769531 144.851562 197.34375 L 147.398438 194.472656 C 148.105469 193.679688 148.03125 192.476562 147.226562 191.769531 C 146.429688 191.066406 145.21875 191.144531 144.511719 191.9375 " fill-opacity="1" fill-rule="nonzero"/><path fill="#63625e" d="M 153.0625 182.300781 L 148.179688 187.804688 C 147.472656 188.597656 147.546875 189.8125 148.34375 190.507812 C 148.714844 190.828125 149.164062 190.984375 149.621094 190.984375 C 150.15625 190.984375 150.683594 190.769531 151.066406 190.34375 L 155.949219 184.835938 C 156.65625 184.042969 156.578125 182.832031 155.785156 182.128906 C 154.988281 181.433594 153.769531 181.507812 153.0625 182.300781 " fill-opacity="1" fill-rule="nonzero"/><path fill="#63625e" d="M 160.539062 172.28125 C 160.027344 171.363281 158.855469 171.027344 157.925781 171.535156 C 156.992188 172.050781 156.664062 173.21875 157.171875 174.136719 L 158.375 176.308594 L 156.730469 178.164062 C 156.023438 178.964844 156.097656 180.167969 156.902344 180.871094 C 157.261719 181.191406 157.722656 181.351562 158.171875 181.351562 C 158.707031 181.351562 159.230469 181.132812 159.613281 180.699219 L 162.160156 177.835938 C 162.703125 177.21875 162.792969 176.34375 162.402344 175.632812 L 160.539062 172.28125 " fill-opacity="1" fill-rule="nonzero"/><path fill="#63625e" d="M 154.25 168.886719 C 154.605469 169.523438 155.257812 169.875 155.941406 169.875 C 156.25 169.875 156.570312 169.800781 156.863281 169.632812 C 157.796875 169.125 158.136719 167.957031 157.617188 167.03125 L 153.726562 160.027344 C 153.214844 159.109375 152.042969 158.773438 151.109375 159.28125 C 150.179688 159.796875 149.839844 160.957031 150.359375 161.882812 L 154.25 168.886719 " fill-opacity="1" fill-rule="nonzero"/><path fill="#63625e" d="M 152.734375 154.171875 C 153.0625 153.167969 152.523438 152.082031 151.515625 151.746094 L 147.863281 150.535156 C 147.113281 150.28125 146.285156 150.519531 145.777344 151.125 C 145.273438 151.730469 145.191406 152.59375 145.574219 153.28125 L 147.4375 156.632812 C 147.789062 157.261719 148.441406 157.621094 149.117188 157.621094 C 149.433594 157.621094 149.757812 157.546875 150.050781 157.378906 C 150.757812 156.992188 151.117188 156.226562 151.027344 155.472656 C 151.785156 155.429688 152.476562 154.933594 152.734375 154.171875 " fill-opacity="1" fill-rule="nonzero"/><path fill="#63625e" d="M 178.910156 157.664062 C 179.195312 157.664062 179.488281 157.597656 179.765625 157.460938 L 186.089844 154.3125 C 187.039062 153.84375 187.429688 152.691406 186.957031 151.738281 C 186.476562 150.796875 185.324219 150.40625 184.371094 150.886719 L 178.046875 154.035156 C 177.097656 154.507812 176.707031 155.660156 177.179688 156.601562 C 177.519531 157.277344 178.203125 157.664062 178.910156 157.664062 " fill-opacity="1" fill-rule="nonzero"/><path fill="#63625e" d="M 163.257812 155.644531 L 156.550781 153.414062 C 155.535156 153.078125 154.445312 153.625 154.117188 154.628906 C 153.777344 155.628906 154.316406 156.714844 155.332031 157.050781 L 162.042969 159.28125 C 162.246094 159.347656 162.449219 159.378906 162.648438 159.378906 C 163.453125 159.378906 164.207031 158.871094 164.476562 158.070312 C 164.808594 157.066406 164.265625 155.980469 163.257812 155.644531 " fill-opacity="1" fill-rule="nonzero"/><path fill="#63625e" d="M 190.832031 151.949219 L 192.792969 150.976562 L 194.046875 152.757812 C 194.425781 153.289062 195.015625 153.578125 195.625 153.578125 C 196 153.578125 196.390625 153.46875 196.722656 153.226562 C 197.59375 152.621094 197.804688 151.433594 197.195312 150.566406 L 194.996094 147.421875 C 194.445312 146.644531 193.410156 146.382812 192.554688 146.808594 L 189.121094 148.523438 C 188.164062 148.992188 187.78125 150.144531 188.253906 151.097656 C 188.730469 152.039062 189.886719 152.421875 190.832031 151.949219 " fill-opacity="1" fill-rule="nonzero"/><path fill="#63625e" d="M 216.113281 174.027344 L 222.667969 177.039062 C 222.929688 177.160156 223.199219 177.214844 223.476562 177.214844 C 224.199219 177.214844 224.898438 176.800781 225.222656 176.105469 C 225.664062 175.140625 225.242188 174.003906 224.28125 173.5625 L 217.722656 170.546875 C 216.761719 170.105469 215.617188 170.523438 215.175781 171.484375 C 214.730469 172.449219 215.144531 173.585938 216.113281 174.027344 " fill-opacity="1" fill-rule="nonzero"/><path fill="#63625e" d="M 197.152344 157.179688 L 201.292969 163.066406 C 201.667969 163.597656 202.269531 163.882812 202.867188 163.882812 C 203.253906 163.882812 203.636719 163.769531 203.972656 163.539062 C 204.84375 162.929688 205.054688 161.734375 204.445312 160.875 L 200.308594 154.980469 C 199.699219 154.109375 198.496094 153.902344 197.625 154.507812 C 196.753906 155.113281 196.542969 156.3125 197.152344 157.179688 " fill-opacity="1" fill-rule="nonzero"/><path fill="#63625e" d="M 233.019531 175.035156 C 232.808594 173.996094 231.792969 173.324219 230.75 173.53125 C 229.714844 173.742188 229.039062 174.75 229.246094 175.785156 L 229.253906 175.851562 L 229.195312 175.820312 C 228.234375 175.378906 227.089844 175.800781 226.648438 176.757812 C 226.199219 177.722656 226.625 178.859375 227.585938 179.300781 L 231.082031 180.902344 C 231.335938 181.019531 231.613281 181.082031 231.886719 181.082031 C 232.304688 181.082031 232.734375 180.9375 233.070312 180.667969 C 233.644531 180.21875 233.914062 179.496094 233.769531 178.792969 L 233.019531 175.035156 " fill-opacity="1" fill-rule="nonzero"/><path fill="#63625e" d="M 229.847656 170.957031 C 229.976562 170.957031 230.105469 170.953125 230.230469 170.921875 C 231.269531 170.710938 231.945312 169.703125 231.734375 168.667969 L 230.027344 160.1875 C 229.828125 159.144531 228.820312 158.472656 227.769531 158.683594 C 226.730469 158.882812 226.054688 159.894531 226.265625 160.933594 L 227.964844 169.417969 C 228.152344 170.332031 228.953125 170.957031 229.847656 170.957031 " fill-opacity="1" fill-rule="nonzero"/><path fill="#63625e" d="M 227.25 156.070312 C 228.285156 155.863281 228.960938 154.851562 228.75 153.820312 L 228 150.0625 C 227.789062 149.023438 226.777344 148.351562 225.738281 148.558594 C 224.695312 148.769531 224.019531 149.78125 224.230469 150.8125 L 224.980469 154.566406 C 225.167969 155.480469 225.964844 156.109375 226.867188 156.109375 C 226.992188 156.109375 227.121094 156.09375 227.25 156.070312 " fill-opacity="1" fill-rule="nonzero"/><path fill="#63625e" d="M 223.945312 124.238281 C 224.640625 123.96875 225.378906 123.84375 226.113281 123.84375 C 226.851562 123.84375 227.585938 123.96875 228.285156 124.238281 C 230.472656 125.078125 231.886719 127.050781 231.886719 129.273438 C 231.886719 130.449219 231.539062 131.601562 230.878906 132.609375 L 226.113281 139.882812 L 221.351562 132.609375 C 220.691406 131.601562 220.34375 130.449219 220.34375 129.273438 C 220.34375 127.050781 221.757812 125.078125 223.945312 124.238281 Z M 224.5 144.4375 C 224.859375 144.976562 225.460938 145.304688 226.113281 145.304688 C 226.769531 145.304688 227.371094 144.976562 227.730469 144.4375 L 234.101562 134.699219 C 235.167969 133.074219 235.730469 131.195312 235.730469 129.273438 C 235.730469 125.449219 233.351562 122.070312 229.660156 120.664062 C 227.371094 119.789062 224.851562 119.796875 222.570312 120.664062 C 218.878906 122.070312 216.496094 125.449219 216.496094 129.273438 C 216.496094 131.195312 217.0625 133.074219 218.128906 134.699219 L 224.5 144.4375 " fill-opacity="1" fill-rule="nonzero"/><path fill="#63625e" d="M 226.113281 133.554688 C 228.234375 133.554688 229.960938 131.832031 229.960938 129.707031 C 229.960938 127.589844 228.234375 125.863281 226.113281 125.863281 C 223.996094 125.863281 222.269531 127.589844 222.269531 129.707031 C 222.269531 131.832031 223.996094 133.554688 226.113281 133.554688 " fill-opacity="1" fill-rule="nonzero"/><path fill="#63625e" d="M 191.296875 188.066406 L 195.851562 182.675781 C 196.535156 181.867188 196.429688 180.65625 195.617188 179.972656 C 194.800781 179.292969 193.589844 179.398438 192.90625 180.207031 L 188.398438 185.546875 L 183.140625 180.976562 C 182.34375 180.28125 181.125 180.363281 180.425781 181.15625 C 179.726562 181.957031 179.8125 183.167969 180.613281 183.863281 L 185.917969 188.480469 L 181.367188 193.867188 C 180.683594 194.675781 180.789062 195.886719 181.597656 196.566406 C 181.960938 196.867188 182.402344 197.015625 182.839844 197.015625 C 183.386719 197.015625 183.929688 196.785156 184.3125 196.335938 L 188.820312 190.992188 L 194.078125 195.570312 C 194.4375 195.886719 194.890625 196.042969 195.339844 196.042969 C 195.875 196.042969 196.40625 195.820312 196.789062 195.386719 C 197.488281 194.59375 197.40625 193.378906 196.601562 192.683594 L 191.296875 188.066406 " fill-opacity="1" fill-rule="nonzero"/><path fill="#63625e" d="M 151.101562 129.691406 C 154.289062 129.691406 156.871094 132.339844 156.871094 135.585938 C 156.871094 138.835938 154.289062 141.476562 151.101562 141.476562 C 147.917969 141.476562 145.332031 138.835938 145.332031 135.585938 C 145.332031 132.339844 147.917969 129.691406 151.101562 129.691406 Z M 151.101562 145.304688 C 156.40625 145.304688 160.71875 140.945312 160.71875 135.585938 C 160.71875 130.222656 156.40625 125.863281 151.101562 125.863281 C 145.796875 125.863281 141.484375 130.222656 141.484375 135.585938 C 141.484375 140.945312 145.796875 145.304688 151.101562 145.304688 " fill-opacity="1" fill-rule="nonzero"/><g fill="#63625e" fill-opacity="1"><g transform="translate(125.703965, 245.595937)"><g><path d="M 0.90625 -1.1875 C 1.226562 -1.195312 1.472656 -1.234375 1.640625 -1.296875 C 1.804688 -1.367188 1.9375 -1.507812 2.03125 -1.71875 C 2.125 -1.9375 2.171875 -2.28125 2.171875 -2.75 L 2.171875 -9.640625 C 2.171875 -10.316406 2.195312 -10.859375 2.25 -11.265625 L 0.90625 -11.21875 L 0.90625 -12.59375 L 6.015625 -12.640625 C 7.628906 -12.648438 8.894531 -12.328125 9.8125 -11.671875 C 10.738281 -11.015625 11.203125 -10.019531 11.203125 -8.6875 C 11.203125 -8.007812 11.007812 -7.359375 10.625 -6.734375 C 10.238281 -6.109375 9.660156 -5.597656 8.890625 -5.203125 C 8.117188 -4.804688 7.179688 -4.585938 6.078125 -4.546875 L 5.375 -4.53125 L 4.78125 -4.546875 L 4.78125 -2.96875 C 4.78125 -2.28125 4.757812 -1.734375 4.71875 -1.328125 C 5.101562 -1.367188 5.613281 -1.390625 6.25 -1.390625 L 6.25 0 L 0.90625 0 Z M 5.59375 -5.84375 C 6.570312 -5.84375 7.285156 -6.085938 7.734375 -6.578125 C 8.179688 -7.066406 8.40625 -7.78125 8.40625 -8.71875 C 8.40625 -10.488281 7.601562 -11.375 6 -11.375 C 5.570312 -11.375 5.257812 -11.28125 5.0625 -11.09375 C 4.875 -10.914062 4.78125 -10.535156 4.78125 -9.953125 L 4.78125 -5.90625 C 5.039062 -5.863281 5.3125 -5.84375 5.59375 -5.84375 Z M 5.59375 -5.84375 "/></g></g></g><g fill="#63625e" fill-opacity="1"><g transform="translate(139.905929, 245.595937)"><g><path d="M 6.890625 0.28125 C 5.453125 0.28125 4.265625 -0.0351562 3.328125 -0.671875 C 2.390625 -1.304688 1.703125 -2.117188 1.265625 -3.109375 C 0.835938 -4.109375 0.625 -5.171875 0.625 -6.296875 C 0.625 -7.367188 0.863281 -8.40625 1.34375 -9.40625 C 1.820312 -10.414062 2.539062 -11.25 3.5 -11.90625 C 4.457031 -12.5625 5.609375 -12.890625 6.953125 -12.890625 C 8.328125 -12.890625 9.484375 -12.5625 10.421875 -11.90625 C 11.367188 -11.25 12.070312 -10.414062 12.53125 -9.40625 C 12.988281 -8.40625 13.21875 -7.367188 13.21875 -6.296875 C 13.21875 -5.253906 12.972656 -4.222656 12.484375 -3.203125 C 12.003906 -2.191406 11.285156 -1.359375 10.328125 -0.703125 C 9.378906 -0.046875 8.234375 0.28125 6.890625 0.28125 Z M 7.078125 -1.03125 C 7.859375 -1.03125 8.492188 -1.273438 8.984375 -1.765625 C 9.472656 -2.253906 9.828125 -2.875 10.046875 -3.625 C 10.265625 -4.382812 10.375 -5.175781 10.375 -6 C 10.375 -7.695312 10.070312 -9.050781 9.46875 -10.0625 C 8.863281 -11.070312 7.972656 -11.578125 6.796875 -11.578125 C 6.003906 -11.578125 5.359375 -11.320312 4.859375 -10.8125 C 4.359375 -10.3125 4 -9.675781 3.78125 -8.90625 C 3.5625 -8.144531 3.453125 -7.347656 3.453125 -6.515625 C 3.453125 -5.671875 3.570312 -4.828125 3.8125 -3.984375 C 4.050781 -3.148438 4.441406 -2.445312 4.984375 -1.875 C 5.535156 -1.3125 6.234375 -1.03125 7.078125 -1.03125 Z M 7.078125 -1.03125 "/></g></g></g><g fill="#63625e" fill-opacity="1"><g transform="translate(156.447889, 245.595937)"><g><path d="M 0.90625 -1.1875 C 1.226562 -1.195312 1.472656 -1.234375 1.640625 -1.296875 C 1.804688 -1.367188 1.9375 -1.507812 2.03125 -1.71875 C 2.125 -1.9375 2.171875 -2.28125 2.171875 -2.75 L 2.171875 -9.640625 C 2.171875 -10.316406 2.195312 -10.859375 2.25 -11.265625 L 0.90625 -11.21875 L 0.90625 -12.59375 L 6.0625 -12.59375 L 6.0625 -11.40625 C 5.738281 -11.394531 5.492188 -11.359375 5.328125 -11.296875 C 5.160156 -11.234375 5.023438 -11.09375 4.921875 -10.875 C 4.828125 -10.65625 4.78125 -10.3125 4.78125 -9.84375 L 4.78125 -2.953125 C 4.78125 -2.304688 4.757812 -1.78125 4.71875 -1.375 L 7.125 -1.375 C 7.84375 -1.382812 8.398438 -1.632812 8.796875 -2.125 C 9.191406 -2.625 9.390625 -3.351562 9.390625 -4.3125 L 10.609375 -4.3125 L 10.5 0 L 0.90625 0 Z M 0.90625 -1.1875 "/></g></g></g><g fill="#63625e" fill-opacity="1"><g transform="translate(170.019857, 245.595937)"><g><path d="M 0.078125 -1.234375 C 0.390625 -1.234375 0.648438 -1.320312 0.859375 -1.5 C 1.066406 -1.6875 1.226562 -1.910156 1.34375 -2.171875 C 1.46875 -2.429688 1.617188 -2.804688 1.796875 -3.296875 L 5.3125 -12.921875 L 6.5625 -12.921875 L 10.40625 -3.109375 C 10.5 -2.867188 10.597656 -2.570312 10.703125 -2.21875 C 10.816406 -1.863281 10.882812 -1.566406 10.90625 -1.328125 C 11.300781 -1.367188 11.648438 -1.390625 11.953125 -1.390625 L 11.953125 0 L 7.109375 0 L 7.109375 -1.1875 C 7.679688 -1.1875 7.96875 -1.425781 7.96875 -1.90625 C 7.96875 -2.144531 7.90625 -2.429688 7.78125 -2.765625 L 7.421875 -3.765625 L 3.515625 -3.6875 L 3.21875 -2.84375 C 3.1875 -2.75 3.109375 -2.53125 2.984375 -2.1875 C 2.859375 -1.851562 2.742188 -1.585938 2.640625 -1.390625 C 3.023438 -1.421875 3.453125 -1.4375 3.921875 -1.4375 L 3.921875 0 L 0.078125 0 Z M 6.96875 -5.046875 L 6.140625 -7.296875 C 5.785156 -8.273438 5.554688 -9.09375 5.453125 -9.75 L 5.4375 -9.75 C 5.238281 -8.882812 5.015625 -8.09375 4.765625 -7.375 L 3.953125 -5.046875 Z M 6.96875 -5.046875 "/></g></g></g><g fill="#63625e" fill-opacity="1"><g transform="translate(184.743819, 245.595937)"><g><path d="M 0.90625 -1.1875 C 1.226562 -1.195312 1.472656 -1.234375 1.640625 -1.296875 C 1.804688 -1.367188 1.9375 -1.507812 2.03125 -1.71875 C 2.125 -1.9375 2.171875 -2.28125 2.171875 -2.75 L 2.171875 -9.640625 C 2.171875 -10.316406 2.195312 -10.859375 2.25 -11.265625 L 0.90625 -11.21875 L 0.90625 -12.59375 L 6.015625 -12.640625 C 7.660156 -12.648438 8.925781 -12.359375 9.8125 -11.765625 C 10.707031 -11.179688 11.15625 -10.226562 11.15625 -8.90625 C 11.15625 -8.082031 10.890625 -7.347656 10.359375 -6.703125 C 9.828125 -6.054688 9.035156 -5.585938 7.984375 -5.296875 L 7.984375 -5.28125 C 8.203125 -5.1875 8.425781 -5.035156 8.65625 -4.828125 C 8.882812 -4.617188 9.078125 -4.390625 9.234375 -4.140625 L 10.078125 -2.875 C 10.484375 -2.238281 10.820312 -1.800781 11.09375 -1.5625 C 11.363281 -1.320312 11.695312 -1.195312 12.09375 -1.1875 L 12.09375 0 L 9.125 0 C 8.914062 -0.144531 8.707031 -0.351562 8.5 -0.625 C 8.300781 -0.894531 8.070312 -1.25 7.8125 -1.6875 L 6.484375 -3.859375 C 6.179688 -4.335938 5.925781 -4.679688 5.71875 -4.890625 L 4.78125 -4.890625 L 4.78125 -2.96875 C 4.78125 -2.28125 4.757812 -1.734375 4.71875 -1.328125 C 5.101562 -1.367188 5.613281 -1.390625 6.25 -1.390625 L 6.25 0 L 0.90625 0 Z M 5.65625 -6.1875 C 6.632812 -6.1875 7.34375 -6.40625 7.78125 -6.84375 C 8.21875 -7.28125 8.4375 -7.96875 8.4375 -8.90625 C 8.4375 -9.90625 8.179688 -10.566406 7.671875 -10.890625 C 7.160156 -11.210938 6.601562 -11.375 6 -11.375 C 5.570312 -11.375 5.257812 -11.28125 5.0625 -11.09375 C 4.875 -10.914062 4.78125 -10.535156 4.78125 -9.953125 L 4.78125 -6.265625 C 5.144531 -6.210938 5.4375 -6.1875 5.65625 -6.1875 Z M 5.65625 -6.1875 "/></g></g></g><g fill="#63625e" fill-opacity="1"><g transform="translate(199.791785, 245.595937)"><g><path d="M 0.90625 -1.1875 C 1.226562 -1.195312 1.472656 -1.234375 1.640625 -1.296875 C 1.804688 -1.367188 1.9375 -1.507812 2.03125 -1.71875 C 2.125 -1.9375 2.171875 -2.28125 2.171875 -2.75 L 2.171875 -9.640625 C 2.171875 -10.316406 2.195312 -10.859375 2.25 -11.265625 L 0.90625 -11.21875 L 0.90625 -12.59375 L 6.0625 -12.59375 L 6.0625 -11.40625 C 5.738281 -11.394531 5.492188 -11.359375 5.328125 -11.296875 C 5.160156 -11.234375 5.023438 -11.09375 4.921875 -10.875 C 4.828125 -10.65625 4.78125 -10.3125 4.78125 -9.84375 L 4.78125 -2.953125 C 4.78125 -2.273438 4.757812 -1.734375 4.71875 -1.328125 C 5.101562 -1.367188 5.550781 -1.390625 6.0625 -1.390625 L 6.0625 0 L 0.90625 0 Z M 0.90625 -1.1875 "/></g></g></g><g fill="#63625e" fill-opacity="1"><g transform="translate(209.457768, 245.595937)"><g><path d="M 5.53125 0.28125 C 5.03125 0.28125 4.5 0.203125 3.9375 0.046875 C 3.382812 -0.109375 2.875 -0.320312 2.40625 -0.59375 L 2.390625 -0.59375 L 2.453125 0.15625 L 1.0625 0.15625 L 1.0625 -4.046875 L 2.25 -4.046875 C 2.40625 -3.066406 2.78125 -2.316406 3.375 -1.796875 C 3.976562 -1.273438 4.710938 -1.015625 5.578125 -1.015625 C 6.203125 -1.015625 6.71875 -1.175781 7.125 -1.5 C 7.53125 -1.832031 7.734375 -2.234375 7.734375 -2.703125 C 7.734375 -3.085938 7.597656 -3.414062 7.328125 -3.6875 C 7.066406 -3.96875 6.769531 -4.1875 6.4375 -4.34375 C 6.101562 -4.5 5.578125 -4.71875 4.859375 -5 C 3.535156 -5.53125 2.523438 -6.128906 1.828125 -6.796875 C 1.128906 -7.472656 0.78125 -8.359375 0.78125 -9.453125 C 0.78125 -10.003906 0.914062 -10.539062 1.1875 -11.0625 C 1.46875 -11.582031 1.921875 -12.015625 2.546875 -12.359375 C 3.171875 -12.710938 3.984375 -12.890625 4.984375 -12.890625 C 5.503906 -12.890625 6.046875 -12.8125 6.609375 -12.65625 C 7.171875 -12.507812 7.640625 -12.300781 8.015625 -12.03125 L 8.03125 -12.03125 L 7.953125 -12.765625 L 9.359375 -12.765625 L 9.359375 -8.5625 L 8.171875 -8.5625 C 8.015625 -9.550781 7.671875 -10.300781 7.140625 -10.8125 C 6.609375 -11.332031 5.925781 -11.59375 5.09375 -11.59375 C 4.550781 -11.59375 4.082031 -11.441406 3.6875 -11.140625 C 3.300781 -10.847656 3.109375 -10.484375 3.109375 -10.046875 C 3.109375 -9.515625 3.332031 -9.066406 3.78125 -8.703125 C 4.226562 -8.347656 4.976562 -7.957031 6.03125 -7.53125 C 7.238281 -7.039062 8.222656 -6.476562 8.984375 -5.84375 C 9.753906 -5.21875 10.140625 -4.382812 10.140625 -3.34375 C 10.140625 -2.632812 9.945312 -2.003906 9.5625 -1.453125 C 9.175781 -0.898438 8.632812 -0.472656 7.9375 -0.171875 C 7.238281 0.128906 6.4375 0.28125 5.53125 0.28125 Z M 5.53125 0.28125 "/></g></g></g><g fill="#63625e" fill-opacity="1"><g transform="translate(222.921736, 245.595937)"><g><path d="M 4.53125 0.28125 C 3.6875 0.28125 2.96875 0.15625 2.375 -0.09375 C 1.789062 -0.351562 1.351562 -0.679688 1.0625 -1.078125 C 0.769531 -1.484375 0.625 -1.910156 0.625 -2.359375 C 0.625 -2.742188 0.738281 -3.066406 0.96875 -3.328125 C 1.207031 -3.585938 1.515625 -3.71875 1.890625 -3.71875 C 2.273438 -3.71875 2.5625 -3.597656 2.75 -3.359375 C 2.9375 -3.117188 3.03125 -2.859375 3.03125 -2.578125 C 3.03125 -2.441406 3.003906 -2.296875 2.953125 -2.140625 C 2.898438 -1.992188 2.828125 -1.863281 2.734375 -1.75 C 2.859375 -1.53125 3.070312 -1.351562 3.375 -1.21875 C 3.675781 -1.09375 4.003906 -1.03125 4.359375 -1.03125 C 5.085938 -1.03125 5.648438 -1.25 6.046875 -1.6875 C 6.441406 -2.125 6.640625 -2.695312 6.640625 -3.40625 C 6.640625 -4.132812 6.429688 -4.753906 6.015625 -5.265625 C 5.609375 -5.785156 4.929688 -6.039062 3.984375 -6.03125 C 3.785156 -6.03125 3.472656 -6.007812 3.046875 -5.96875 L 3.046875 -7.265625 C 3.171875 -7.253906 3.34375 -7.25 3.5625 -7.25 C 4.351562 -7.25 4.96875 -7.460938 5.40625 -7.890625 C 5.851562 -8.316406 6.078125 -8.878906 6.078125 -9.578125 C 6.078125 -10.210938 5.941406 -10.710938 5.671875 -11.078125 C 5.410156 -11.441406 4.988281 -11.625 4.40625 -11.625 C 4.09375 -11.625 3.804688 -11.546875 3.546875 -11.390625 C 3.285156 -11.242188 3.097656 -11.070312 2.984375 -10.875 C 3.078125 -10.75 3.148438 -10.601562 3.203125 -10.4375 C 3.253906 -10.269531 3.28125 -10.117188 3.28125 -9.984375 C 3.28125 -9.722656 3.179688 -9.46875 2.984375 -9.21875 C 2.785156 -8.96875 2.492188 -8.84375 2.109375 -8.84375 C 1.734375 -8.84375 1.441406 -8.960938 1.234375 -9.203125 C 1.023438 -9.453125 0.921875 -9.765625 0.921875 -10.140625 C 0.921875 -10.515625 1.066406 -10.914062 1.359375 -11.34375 C 1.648438 -11.78125 2.082031 -12.144531 2.65625 -12.4375 C 3.226562 -12.738281 3.910156 -12.890625 4.703125 -12.890625 C 5.910156 -12.890625 6.875 -12.632812 7.59375 -12.125 C 8.320312 -11.613281 8.6875 -10.804688 8.6875 -9.703125 C 8.6875 -9.359375 8.59375 -8.992188 8.40625 -8.609375 C 8.226562 -8.222656 7.9375 -7.867188 7.53125 -7.546875 C 7.132812 -7.234375 6.625 -7.007812 6 -6.875 L 6 -6.859375 C 7.101562 -6.648438 7.9375 -6.242188 8.5 -5.640625 C 9.070312 -5.035156 9.359375 -4.332031 9.359375 -3.53125 C 9.359375 -2.332031 8.914062 -1.394531 8.03125 -0.71875 C 7.144531 -0.0507812 5.976562 0.28125 4.53125 0.28125 Z M 4.53125 0.28125 "/></g></g></g><g fill="#63625e" fill-opacity="1"><g transform="translate(235.701707, 245.595937)"><g><path d="M 6.765625 0.28125 C 5.492188 0.28125 4.398438 0 3.484375 -0.5625 C 2.566406 -1.125 1.863281 -1.882812 1.375 -2.84375 C 0.882812 -3.8125 0.640625 -4.90625 0.640625 -6.125 C 0.640625 -7.257812 0.875 -8.34375 1.34375 -9.375 C 1.820312 -10.414062 2.53125 -11.257812 3.46875 -11.90625 C 4.414062 -12.5625 5.554688 -12.890625 6.890625 -12.890625 C 7.410156 -12.890625 7.992188 -12.8125 8.640625 -12.65625 C 9.296875 -12.5 9.851562 -12.28125 10.3125 -12 L 10.328125 -12 L 10.265625 -12.765625 L 11.640625 -12.765625 L 11.640625 -8.5625 L 10.46875 -8.5625 C 10.3125 -9.539062 9.929688 -10.285156 9.328125 -10.796875 C 8.734375 -11.316406 8 -11.582031 7.125 -11.59375 C 6.332031 -11.59375 5.660156 -11.351562 5.109375 -10.875 C 4.554688 -10.40625 4.140625 -9.78125 3.859375 -9 C 3.585938 -8.21875 3.453125 -7.378906 3.453125 -6.484375 C 3.453125 -4.890625 3.78125 -3.597656 4.4375 -2.609375 C 5.101562 -1.628906 6.03125 -1.140625 7.21875 -1.140625 C 7.601562 -1.140625 8.039062 -1.179688 8.53125 -1.265625 C 9.03125 -1.347656 9.4375 -1.46875 9.75 -1.625 L 9.75 -3.296875 C 9.75 -3.960938 9.773438 -4.5 9.828125 -4.90625 C 9.515625 -4.882812 9.222656 -4.875 8.953125 -4.875 L 8.484375 -4.859375 L 8.484375 -6.25 L 13.265625 -6.25 L 13.265625 -5.0625 C 12.960938 -5.050781 12.726562 -5.007812 12.5625 -4.9375 C 12.394531 -4.863281 12.269531 -4.710938 12.1875 -4.484375 C 12.101562 -4.265625 12.0625 -3.929688 12.0625 -3.484375 L 12.0625 -0.609375 L 11.625 -0.609375 C 11.351562 -0.609375 11.082031 -0.578125 10.8125 -0.515625 C 10.539062 -0.460938 10.195312 -0.367188 9.78125 -0.234375 C 9.15625 -0.0546875 8.628906 0.0703125 8.203125 0.15625 C 7.785156 0.238281 7.304688 0.28125 6.765625 0.28125 Z M 6.765625 0.28125 "/></g></g></g><g fill="#ebe6d9" fill-opacity="1"><g transform="translate(188.091673, 263.84591)"><g/></g></g></svg>